solid BaseASCII
   facet normal -3.419823e-15 -4.162816e-16 1.000000e+00
      outer loop
         vertex 3.460735e-03 1.524001e-03 2.667318e-01
         vertex 6.956107e-01 1.524001e-03 2.667318e-01
         vertex 3.460735e-03 3.063240e-01 2.667318e-01
      endloop
   endfacet
   facet normal -3.419823e-15 -4.162816e-16 1.000000e+00
      outer loop
         vertex 3.460735e-03 3.063240e-01 2.667318e-01
         vertex 6.956107e-01 1.524001e-03 2.667318e-01
         vertex 6.956107e-01 3.063240e-01 2.667318e-01
      endloop
   endfacet
   facet normal -1.000000e+00 1.423609e-30 -3.419823e-15
      outer loop
         vertex 3.460735e-03 1.524001e-03 3.174995e-05
         vertex 3.460735e-03 1.524001e-03 2.667318e-01
         vertex 3.460735e-03 3.063240e-01 3.174995e-05
      endloop
   endfacet
   facet normal -1.000000e+00 1.423609e-30 -3.419823e-15
      outer loop
         vertex 3.460735e-03 3.063240e-01 3.174995e-05
         vertex 3.460735e-03 1.524001e-03 2.667318e-01
         vertex 3.460735e-03 3.063240e-01 2.667318e-01
      endloop
   endfacet
   facet normal 3.419823e-15 4.162816e-16 -1.000000e+00
      outer loop
         vertex 6.956107e-01 1.524001e-03 3.174995e-05
         vertex 3.460735e-03 1.524001e-03 3.174995e-05
         vertex 6.956107e-01 3.063240e-01 3.174995e-05
      endloop
   endfacet
   facet normal 3.419823e-15 4.162816e-16 -1.000000e+00
      outer loop
         vertex 6.956107e-01 3.063240e-01 3.174995e-05
         vertex 3.460735e-03 1.524001e-03 3.174995e-05
         vertex 3.460735e-03 3.063240e-01 3.174995e-05
      endloop
   endfacet
   facet normal 1.000000e+00 -1.423609e-30 3.419823e-15
      outer loop
         vertex 6.956107e-01 1.524001e-03 2.667318e-01
         vertex 6.956107e-01 1.524001e-03 3.174995e-05
         vertex 6.956107e-01 3.063240e-01 2.667318e-01
      endloop
   endfacet
   facet normal 1.000000e+00 -1.423609e-30 3.419823e-15
      outer loop
         vertex 6.956107e-01 3.063240e-01 2.667318e-01
         vertex 6.956107e-01 1.524001e-03 3.174995e-05
         vertex 6.956107e-01 3.063240e-01 3.174995e-05
      endloop
   endfacet
   facet normal -0.000000e+00 -1.000000e+00 -4.162816e-16
      outer loop
         vertex 3.460735e-03 1.524001e-03 3.174995e-05
         vertex 6.956107e-01 1.524001e-03 3.174995e-05
         vertex 3.460735e-03 1.524001e-03 2.667318e-01
      endloop
   endfacet
   facet normal 0.000000e+00 -1.000000e+00 -4.162816e-16
      outer loop
         vertex 3.460735e-03 1.524001e-03 2.667318e-01
         vertex 6.956107e-01 1.524001e-03 3.174995e-05
         vertex 6.956107e-01 1.524001e-03 2.667318e-01
      endloop
   endfacet
   facet normal 0.000000e+00 1.000000e+00 4.162816e-16
      outer loop
         vertex 6.956107e-01 3.063240e-01 3.174995e-05
         vertex 3.460735e-03 3.063240e-01 3.174995e-05
         vertex 6.956107e-01 3.063240e-01 2.667318e-01
      endloop
   endfacet
   facet normal 0.000000e+00 1.000000e+00 4.162816e-16
      outer loop
         vertex 6.956107e-01 3.063240e-01 2.667318e-01
         vertex 3.460735e-03 3.063240e-01 3.174995e-05
         vertex 3.460735e-03 3.063240e-01 2.667318e-01
      endloop
   endfacet
endsolid